<svg width="95" height="75" viewBox="0 0 95 75" fill="none" xmlns="http://www.w3.org/2000/svg">
<path d="M53.1136 0L38 15.1136L41.0227 18.1795L47.0682 12.1773L51.8182 16.9273V26.8159C51.8182 31.6091 47.975 35.4523 43.1818 35.4523H40.85C45.1177 40.1947 47.4856 46.345 47.5 52.725C47.4913 54.1727 47.3613 55.6172 47.1114 57.0432H60.5841C61.115 52.2946 63.3769 47.908 66.9376 44.7217C70.4983 41.5354 75.1082 39.7727 79.8864 39.7705C83.7302 39.7726 87.4871 40.9147 90.6818 43.0523V22.4977C90.6818 17.7045 86.8386 13.8614 82.0455 13.8614H54.8841L50.1341 9.11136L56.1364 3.06591L53.1136 0ZM12.9545 18.1795C10.5795 18.1795 8.63636 20.1227 8.63636 22.4977C8.63636 24.8727 10.5795 26.8159 12.9545 26.8159H34.5455C34.5455 22.0659 30.7023 18.1795 25.9091 18.1795H12.9545ZM21.5909 31.1341C19.3024 31.1347 17.0286 31.4991 14.8545 32.2136L16.4091 36.2295L14.3795 37.0068L12.9545 32.9909C8.36468 34.9844 4.60979 38.5104 2.33182 42.9659L6.26136 44.7364L5.35455 46.6796L1.46818 44.9523C0.504304 47.4307 0.00655789 50.0658 0 52.725C0.000572108 55.0135 0.364969 57.2873 1.07955 59.4614L5.09546 57.9068L5.87273 59.9364L1.85682 61.3614C3.85034 65.9512 7.37628 69.7061 11.8318 71.9841L13.5591 68.0545L15.5455 68.9614L13.8182 72.8477C16.2966 73.8116 18.9317 74.3093 21.5909 74.3159C23.8794 74.3153 26.1532 73.9509 28.3273 73.2364L26.7727 69.2205L28.8023 68.4432L30.2273 72.4591C34.8171 70.4656 38.572 66.9396 40.85 62.4841L36.9205 60.7568L37.8273 58.7705L41.7136 60.4977C42.6775 58.0193 43.1753 55.3842 43.1818 52.725C43.1812 50.4365 42.8169 48.1627 42.1023 45.9886L38.0864 47.5432L37.3091 45.5136L41.325 44.0886C39.3315 39.4988 35.8055 35.7439 31.35 33.4659L29.6227 37.3955L27.6364 36.4886L29.3636 32.6023C26.8853 31.6384 24.2501 31.1406 21.5909 31.1341ZM21.5909 39.7705C25.0267 39.7705 28.3217 41.1353 30.7512 43.5648C33.1806 45.9942 34.5455 49.2892 34.5455 52.725C34.5455 56.1608 33.1806 59.4558 30.7512 61.8853C28.3217 64.3147 25.0267 65.6796 21.5909 65.6796C18.1552 65.6796 14.8601 64.3147 12.4307 61.8853C10.0012 59.4558 8.63636 56.1608 8.63636 52.725C8.63636 49.2892 10.0012 45.9942 12.4307 43.5648C14.8601 41.1353 18.1552 39.7705 21.5909 39.7705ZM79.8864 44.0886C75.878 44.0886 72.0338 45.681 69.1994 48.5153C66.3651 51.3497 64.7727 55.1939 64.7727 59.2023C64.7727 63.2107 66.3651 67.0549 69.1994 69.8892C72.0338 72.7236 75.878 74.3159 79.8864 74.3159C83.8948 74.3159 87.739 72.7236 90.5733 69.8892C93.4077 67.0549 95 63.2107 95 59.2023C95 55.1939 93.4077 51.3497 90.5733 48.5153C87.739 45.681 83.8948 44.0886 79.8864 44.0886ZM79.8864 52.725C81.6042 52.725 83.2518 53.4074 84.4665 54.6222C85.6812 55.8369 86.3636 57.4844 86.3636 59.2023C86.3636 60.9202 85.6812 62.5677 84.4665 63.7824C83.2518 64.9971 81.6042 65.6796 79.8864 65.6796C78.1685 65.6796 76.521 64.9971 75.3062 63.7824C74.0915 62.5677 73.4091 60.9202 73.4091 59.2023C73.4091 57.4844 74.0915 55.8369 75.3062 54.6222C76.521 53.4074 78.1685 52.725 79.8864 52.725Z" fill="#454445"/>
</svg>
